<svg width="1440" height="924" viewBox="0 0 1440 924" fill="none" xmlns="http://www.w3.org/2000/svg">
<g filter="url(#filter0_d)">
<path d="M1440 45.9999H0V854C0 854 88 830 400 830C712 830 784 870 1056 870C1328 870 1440 838 1440 838V45.9999Z" fill="url(#paint0_linear)"/>
</g>
<mask id="mask0" mask-type="alpha" maskUnits="userSpaceOnUse" x="0" y="46" width="1440" height="824">
<path d="M1440 46H0V854C0 854 88 830 400 830C712 830 784 870 1056 870C1328 870 1440 838 1440 838V46Z" fill="url(#paint1_linear)"/>
</mask>
<g mask="url(#mask0)">
<path d="M696.875 112.143C720.875 -159.857 929.904 -199.983 1112.88 -231.857H1472.88V160.143C1147.75 530.93 672.875 384.143 696.875 112.143Z" fill="url(#paint2_linear)"/>
<path d="M536.312 641.21C512.312 913.21 303.283 953.335 120.312 985.21L-239.688 985.21L-239.688 593.21C85.4331 222.422 560.312 369.21 536.312 641.21Z" fill="url(#paint3_linear)"/>
</g>
<defs>
<filter id="filter0_d" x="-50" y="-6.10352e-05" width="1540" height="924" filterUnits="userSpaceOnUse" color-interpolation-filters="sRGB">
<feFlood flood-opacity="0" result="BackgroundImageFix"/>
<feColorMatrix in="SourceAlpha" type="matrix" values="0 0 0 0 0 0 0 0 0 0 0 0 0 0 0 0 0 0 127 0"/>
<feOffset dy="4"/>
<feGaussianBlur stdDeviation="25"/>
<feColorMatrix type="matrix" values="0 0 0 0 0.121569 0 0 0 0 0.0509804 0 0 0 0 0.298039 0 0 0 0.5 0"/>
<feBlend mode="normal" in2="BackgroundImageFix" result="effect1_dropShadow"/>
<feBlend mode="normal" in="SourceGraphic" in2="effect1_dropShadow" result="shape"/>
</filter>
<linearGradient id="paint0_linear" x1="291.806" y1="886.506" x2="1118.05" y2="11.542" gradientUnits="userSpaceOnUse">
<stop stop-color="#390073"/>
<stop offset="1" stop-color="#001FC1"/>
</linearGradient>
<linearGradient id="paint1_linear" x1="1197.23" y1="931.333" x2="197.989" y2="87.6728" gradientUnits="userSpaceOnUse">
<stop stop-color="#1B0035"/>
<stop offset="1" stop-color="#0B239F"/>
</linearGradient>
<linearGradient id="paint2_linear" x1="1432.07" y1="-231.857" x2="884.934" y2="367.916" gradientUnits="userSpaceOnUse">
<stop stop-color="#6039FF" stop-opacity="0"/>
<stop offset="1" stop-color="#6039FF" stop-opacity="0.3"/>
</linearGradient>
<linearGradient id="paint3_linear" x1="-43.3026" y1="894.969" x2="503.013" y2="397.899" gradientUnits="userSpaceOnUse">
<stop stop-color="#6039FF" stop-opacity="0"/>
<stop offset="1" stop-color="#6039FF" stop-opacity="0.2"/>
</linearGradient>
</defs>
</svg>
