<svg width="85" height="20" viewBox="0 0 85 20" fill="none" xmlns="http://www.w3.org/2000/svg">
<path d="M12.0146 10.376L8.46263 15.824H5.22263L7.71863 11.672H0.590625V9.08H7.69463L5.22263 4.976H8.46263L12.0146 10.376ZM34.3061 8.24C35.3301 8.544 36.1141 9.04 36.6581 9.728C37.2021 10.416 37.4741 11.264 37.4741 12.272C37.4741 13.76 36.9061 14.92 35.7701 15.752C34.6501 16.584 33.0421 17 30.9461 17H22.6661V0.199999H30.4901C32.4421 0.199999 33.9621 0.575999 35.0501 1.328C36.1381 2.08 36.6821 3.152 36.6821 4.544C36.6821 5.376 36.4741 6.112 36.0581 6.752C35.6421 7.376 35.0581 7.872 34.3061 8.24ZM26.5301 7.16H30.1541C31.0021 7.16 31.6421 6.992 32.0741 6.656C32.5061 6.304 32.7221 5.792 32.7221 5.12C32.7221 4.464 32.4981 3.96 32.0501 3.608C31.6181 3.256 30.9861 3.08 30.1541 3.08H26.5301V7.16ZM30.8021 14.12C32.6261 14.12 33.5381 13.4 33.5381 11.96C33.5381 10.568 32.6261 9.872 30.8021 9.872H26.5301V14.12H30.8021ZM48.3729 17L45.5409 13.04L42.6129 17H38.5329L43.5009 10.496L38.7009 4.088H42.9009L45.6369 7.856L48.4449 4.088H52.4289L47.6289 10.4L52.6209 17H48.3729ZM60.1136 17.192C58.7536 17.192 57.5296 16.912 56.4416 16.352C55.3696 15.776 54.5296 14.984 53.9216 13.976C53.3136 12.968 53.0096 11.824 53.0096 10.544C53.0096 9.264 53.3136 8.12 53.9216 7.112C54.5296 6.104 55.3696 5.32 56.4416 4.76C57.5296 4.184 58.7536 3.896 60.1136 3.896C61.4736 3.896 62.6896 4.184 63.7616 4.76C64.8336 5.32 65.6736 6.104 66.2816 7.112C66.8896 8.12 67.1936 9.264 67.1936 10.544C67.1936 11.824 66.8896 12.968 66.2816 13.976C65.6736 14.984 64.8336 15.776 63.7616 16.352C62.6896 16.912 61.4736 17.192 60.1136 17.192ZM60.1136 14.12C61.0736 14.12 61.8576 13.8 62.4656 13.16C63.0896 12.504 63.4016 11.632 63.4016 10.544C63.4016 9.456 63.0896 8.592 62.4656 7.952C61.8576 7.296 61.0736 6.968 60.1136 6.968C59.1536 6.968 58.3616 7.296 57.7376 7.952C57.1136 8.592 56.8016 9.456 56.8016 10.544C56.8016 11.632 57.1136 12.504 57.7376 13.16C58.3616 13.8 59.1536 14.12 60.1136 14.12ZM84.0533 13.928V19.784H80.5733V17H71.5013V19.784H68.0213V13.928H68.5493C69.3493 13.912 69.9013 13.44 70.2053 12.512C70.5093 11.584 70.7013 10.264 70.7812 8.552L70.9492 4.088H82.2053V13.928H84.0533ZM74.1653 8.816C74.1173 10.128 74.0133 11.2 73.8533 12.032C73.7093 12.864 73.4293 13.496 73.0133 13.928H78.4613V7.16H74.2373L74.1653 8.816Z" fill="white"/>
</svg>
