<svg width="102" height="28" viewBox="0 0 102 28" fill="none" xmlns="http://www.w3.org/2000/svg">
<path d="M34.7076 8.176C33.5077 7.77025 32.2505 7.56689 30.9859 7.574C26.7543 7.574 22.7157 9.94 21.1305 17.668C19.5454 25.396 21.93 28 28.5049 28C31.5738 27.9739 34.6232 27.5024 37.5608 26.6L43.0743 0.336H36.3203L34.7076 8.176ZM31.8543 21.952C31.1426 22.1666 30.405 22.2797 29.6627 22.288C27.54 22.288 26.9059 21.616 27.8019 17.556C28.5324 14.182 29.4146 13.09 31.4546 13.09C32.833 13.09 33.5773 13.622 33.467 14.14L31.8543 21.952ZM79.7805 7.588C78.878 7.48123 77.9637 7.61933 77.1308 7.98821C76.2979 8.3571 75.5761 8.94361 75.0389 9.688L75.3697 8.148H68.6846L64.7011 27.44H71.3862L73.8673 15.4C74.0878 14.308 75.7695 13.636 77.5614 13.636C78.4942 13.6134 79.4246 13.7409 80.3181 14.014L81.6965 7.672C81.0599 7.60682 80.4202 7.57878 79.7805 7.588ZM95.3562 8.148L92.5995 21.658C91.9145 21.8072 91.2181 21.8962 90.5181 21.924C88.2576 21.924 88.0646 21.028 88.616 18.326L90.7387 8.148H84.0811L81.8895 18.774C80.5111 25.648 82.6614 28 87.7751 28C91.3609 27.9077 94.9157 27.2996 98.3335 26.194L102 8.148H95.3562ZM44.4527 4.41L43.0468 11.2L49.0565 9.044L45.2659 27.44H52.1578L57.7541 0L44.4527 4.41ZM55.3832 24.01C55.0111 25.774 54.6941 27.804 54.6941 27.804H58.4157C61.3378 27.804 62.3992 27.244 63.047 24.01C63.4054 22.4 63.6811 20.538 63.6811 20.538H59.9043C57.0649 20.538 56.0035 21 55.3832 23.982V24.01ZM12.1573 7.588C5.51351 7.588 2.10892 10.136 0.51 18.018C0.208741 19.422 0.0379913 20.8516 0 22.288C0 26.6 2.19162 27.888 5.73405 27.888C7.69106 27.8419 9.55207 27.0174 10.9168 25.592L10.5584 27.44H16.83L20.6757 8.89C17.9277 7.97607 15.0484 7.53598 12.1573 7.588ZM11.6886 20.188C11.4993 20.7702 11.127 21.2731 10.629 21.6196C10.131 21.9661 9.53477 22.137 8.93189 22.106C7.55351 22.106 6.89189 21.658 6.89189 20.23C6.92005 19.4179 7.03091 18.6109 7.2227 17.822C8.14622 13.44 8.94568 12.908 11.027 12.908C11.7201 12.9234 12.4036 13.0756 13.0395 13.356L11.6886 20.188Z" fill="white"/>
</svg>
